<?xml version="1.0" standalone="no"?>
<!DOCTYPE svg PUBLIC "-//W3C//DTD SVG 20010904//EN"
 "http://www.w3.org/TR/2001/REC-SVG-20010904/DTD/svg10.dtd">
<svg version="1.0" xmlns="http://www.w3.org/2000/svg"
 width="700.000000pt" height="700.000000pt" viewBox="0 0 700.000000 700.000000"
 preserveAspectRatio="xMidYMid meet">
<metadata>
Created by potrace 1.14, written by Peter Selinger 2001-2017
</metadata>
<g transform="translate(0.000000,700.000000) scale(0.100000,-0.100000)"
fill="#000000" stroke="none">
<path d="M3352 6985 c-12 -9 -42 -42 -68 -73 -143 -177 -259 -271 -549 -448
-88 -53 -171 -105 -185 -116 -64 -49 -141 -134 -170 -189 -43 -81 -57 -137
-59 -241 -1 -47 -4 -101 -6 -119 -9 -65 -58 -105 -169 -135 -65 -17 -116 -59
-116 -94 0 -41 -32 -90 -70 -110 -20 -10 -63 -21 -96 -25 -141 -15 -262 -59
-297 -107 -18 -24 -21 -45 -23 -136 -2 -130 -12 -155 -90 -213 -68 -52 -84
-82 -84 -154 0 -73 -18 -106 -82 -149 -80 -53 -154 -130 -174 -181 -22 -58
-15 -117 25 -212 55 -133 51 -193 -14 -268 -37 -42 -42 -67 -25 -125 28 -92 8
-164 -75 -275 -75 -101 -71 -157 19 -267 69 -83 86 -158 57 -248 -18 -55 -7
-90 56 -185 36 -54 37 -85 2 -165 -11 -24 -31 -82 -44 -127 -24 -84 -24 -84
-5 -126 24 -52 28 -58 119 -137 127 -111 133 -119 137 -192 4 -63 31 -113 94
-171 68 -64 82 -100 86 -215 4 -135 21 -155 159 -192 89 -24 83 -22 180 -45
115 -27 132 -44 149 -147 10 -55 49 -82 138 -97 128 -21 143 -42 151 -221 6
-138 26 -210 81 -290 64 -94 124 -141 376 -293 212 -128 378 -265 480 -396 69
-88 102 -107 165 -95 39 7 59 23 120 97 138 167 297 291 573 447 74 42 140 89
191 137 129 119 189 265 192 465 1 35 4 74 8 88 8 32 59 57 127 63 82 8 111
32 133 113 11 42 43 84 76 102 23 12 133 41 179 48 17 2 47 6 67 9 84 11 135
47 145 102 4 19 7 65 9 101 4 127 25 172 110 233 49 35 58 52 60 119 2 49 24
105 55 138 11 12 53 47 92 79 88 69 99 80 125 118 43 63 38 128 -19 240 -18
36 -32 82 -35 115 -5 57 2 80 51 152 28 43 36 92 19 125 -22 43 -27 104 -11
143 8 19 39 66 67 103 65 84 84 129 75 171 -7 35 -49 99 -105 164 -45 51 -58
110 -40 175 23 80 20 108 -16 178 -52 102 -48 168 17 312 32 71 37 109 17 144
-20 35 -94 110 -177 179 -87 72 -107 105 -109 184 -2 63 -16 88 -81 147 -61
55 -91 124 -95 217 -6 158 -55 192 -310 221 -103 12 -154 55 -168 140 -11 68
-37 89 -123 100 -74 9 -117 34 -130 75 -6 19 -14 85 -17 145 -6 129 -28 196
-94 297 -58 88 -130 149 -298 250 -258 156 -386 253 -519 398 -148 161 -181
181 -234 145z m298 -1689 c548 -99 939 -418 1209 -986 47 -99 96 -235 107
-296 3 -15 7 -30 9 -34 2 -3 6 -33 10 -65 4 -33 9 -73 11 -90 10 -66 13 -82
18 -125 3 -25 12 -80 20 -123 7 -43 12 -117 11 -165 -3 -84 -14 -212 -20 -222
-2 -3 -6 -29 -10 -57 -6 -53 -57 -249 -80 -308 -149 -393 -362 -685 -647 -888
-87 -62 -254 -148 -371 -191 -352 -131 -672 -126 -1032 15 -95 37 -257 122
-300 158 -11 9 -36 27 -55 41 -65 45 -195 168 -277 262 -61 69 -180 253 -229
353 -74 149 -108 242 -143 383 -42 172 -52 223 -71 367 -8 59 -5 311 3 350 3
11 8 43 11 70 38 288 149 595 299 823 252 384 647 658 1052 729 133 24 342 23
475 -1z"/>
</g>
</svg>
