<svg width="54" height="76" viewBox="0 0 54 76" fill="none" xmlns="http://www.w3.org/2000/svg">
<g opacity="0.23">
<path fill-rule="evenodd" clip-rule="evenodd" d="M52.7021 72.9252H49.5938V7.81057C49.5938 7.01357 48.9562 6.37598 48.1593 6.37598H40.5878V1.43459C40.5878 0.637598 39.9502 0 39.1532 0H15.9608C15.1638 0 14.5262 0.637598 14.5262 1.43459V6.45568H6.95474C6.15775 6.45568 5.52015 7.09327 5.52015 7.89027V72.9252H2.41188C1.61489 72.9252 0.977295 73.5628 0.977295 74.3598C0.977295 75.1568 1.61489 75.7944 2.41188 75.7944H52.5427C53.3397 75.7944 53.9773 75.1568 53.9773 74.3598C53.9773 73.5628 53.4194 72.9252 52.7021 72.9252ZM17.3156 2.78949H37.7983V6.37598H17.3156V2.78949ZM8.38932 9.16547H46.7247V72.9252H35.4871V58.7387C35.4871 57.9417 34.8495 57.3041 34.0525 57.3041H21.0615C20.2645 57.3041 19.6269 57.9417 19.6269 58.7387V72.9252H8.38932V9.16547ZM32.6976 72.9252H22.4961V60.0936H32.6976V72.9252ZM15.9609 39.5323H23.9308C24.7278 39.5323 25.3654 38.8947 25.3654 38.0977V30.3668C25.3654 29.5698 24.7278 28.9322 23.9308 28.9322H15.9609C15.1639 28.9322 14.5263 29.5698 14.5263 30.3668V38.0977C14.5263 38.8947 15.1639 39.5323 15.9609 39.5323ZM17.3158 31.8014H22.4962V36.7428H17.3158V31.8014ZM39.2328 39.5323H31.2629C30.4659 39.5323 29.908 38.8947 29.8283 38.0977V30.3668C29.8283 29.5698 30.4659 28.9322 31.2629 28.9322H39.2328C40.0298 28.9322 40.6674 29.5698 40.6674 30.3668V38.0977C40.6674 38.8947 40.0298 39.5323 39.2328 39.5323ZM37.8779 31.8014H32.6975V36.7428H37.8779V31.8014ZM23.9308 53.7172C24.7278 53.7172 25.3654 53.0796 25.3654 52.2826V44.5518C25.3654 43.7548 24.7278 43.1172 23.9308 43.1172H15.9609C15.1639 43.1172 14.5263 43.7548 14.5263 44.5518V52.2826C14.5263 53.0796 15.1639 53.7172 15.9609 53.7172H23.9308ZM17.3158 45.9864H22.4962V50.9278H17.3158V45.9864ZM39.2328 53.7172H31.2629C30.4659 53.7172 29.908 53.0796 29.8283 52.2826V44.5518C29.8283 43.7548 30.4659 43.1172 31.2629 43.1172H39.2328C40.0298 43.1172 40.6674 43.7548 40.6674 44.5518V52.2826C40.6674 53.0796 40.0298 53.7172 39.2328 53.7172ZM37.8779 45.9864H32.6975V50.9278H37.8779V45.9864ZM15.9609 25.3461H23.9308C24.7278 25.3461 25.3654 24.7085 25.3654 23.9115V16.1806C25.3654 15.3836 24.7278 14.746 23.9308 14.746H15.9609C15.1639 14.746 14.5263 15.3836 14.5263 16.1806V23.9115C14.5263 24.7882 15.1639 25.3461 15.9609 25.3461ZM17.3158 17.6152H22.4962V22.5566H17.3158V17.6152ZM39.2328 25.3461H31.2629C30.4659 25.3461 29.908 24.7882 29.8283 23.9115V16.1806C29.8283 15.3836 30.4659 14.746 31.2629 14.746H39.2328C40.0298 14.746 40.6674 15.3836 40.6674 16.1806V23.9115C40.6674 24.7085 40.0298 25.3461 39.2328 25.3461ZM37.8779 17.6152H32.6975V22.5566H37.8779V17.6152Z" fill="white"/>
</g>
</svg>
