<svg width="64" height="64" viewBox="0 0 64 64" fill="none" xmlns="http://www.w3.org/2000/svg">
<g opacity="0.23" clip-path="url(#clip0_33_223816)">
<path d="M56.7479 49.9628C55.4005 46.7711 53.4452 43.8721 50.9908 41.427C48.5439 38.975 45.6453 37.0199 42.4551 35.6699C42.4265 35.6556 42.3979 35.6485 42.3694 35.6342C46.8194 32.4199 49.7122 27.1842 49.7122 21.277C49.7122 11.4913 41.7837 3.56274 31.9979 3.56274C22.2122 3.56274 14.2837 11.4913 14.2837 21.277C14.2837 27.1842 17.1765 32.4199 21.6265 35.6413C21.5979 35.6556 21.5694 35.6628 21.5408 35.677C18.3408 37.027 15.4694 38.9628 13.0051 41.4342C10.553 43.8811 8.59798 46.7797 7.24795 49.9699C5.92168 53.0931 5.20639 56.4417 5.1408 59.8342C5.1389 59.9104 5.15227 59.9863 5.18013 60.0573C5.20799 60.1282 5.24978 60.1929 5.30304 60.2475C5.35629 60.3021 5.41993 60.3455 5.4902 60.3751C5.56048 60.4047 5.63597 60.4199 5.71223 60.4199H9.99795C10.3122 60.4199 10.5622 60.1699 10.5694 59.8628C10.7122 54.3485 12.9265 49.1842 16.8408 45.2699C20.8908 41.2199 26.2694 38.9913 31.9979 38.9913C37.7265 38.9913 43.1051 41.2199 47.1551 45.2699C51.0694 49.1842 53.2837 54.3485 53.4265 59.8628C53.4337 60.177 53.6837 60.4199 53.9979 60.4199H58.2837C58.3599 60.4199 58.4354 60.4047 58.5057 60.3751C58.576 60.3455 58.6396 60.3021 58.6929 60.2475C58.7461 60.1929 58.7879 60.1282 58.8158 60.0573C58.8436 59.9863 58.857 59.9104 58.8551 59.8342C58.7837 56.4199 58.0765 53.0985 56.7479 49.9628V49.9628ZM31.9979 33.5628C28.7194 33.5628 25.6337 32.2842 23.3122 29.9628C20.9908 27.6413 19.7122 24.5556 19.7122 21.277C19.7122 17.9985 20.9908 14.9127 23.3122 12.5913C25.6337 10.2699 28.7194 8.99132 31.9979 8.99132C35.2765 8.99132 38.3622 10.2699 40.6837 12.5913C43.0051 14.9127 44.2837 17.9985 44.2837 21.277C44.2837 24.5556 43.0051 27.6413 40.6837 29.9628C38.3622 32.2842 35.2765 33.5628 31.9979 33.5628Z" fill="white"/>
</g>
<defs>
<clipPath id="clip0_33_223816">
<rect width="64" height="64" fill="white"/>
</clipPath>
</defs>
</svg>
