<svg width="45" height="55" viewBox="0 0 45 55" fill="none" xmlns="http://www.w3.org/2000/svg">
<path d="M43.5286 13.7868L30.3188 0.577009C29.9505 0.208705 29.4533 0 28.9315 0H2.85564C1.76915 0 0.891357 0.87779 0.891357 1.96429V53.0357C0.891357 54.1222 1.76915 55 2.85564 55H42.1414C43.2279 55 44.1056 54.1222 44.1056 53.0357V15.1802C44.1056 14.6585 43.8969 14.1551 43.5286 13.7868ZM39.5755 16.0826H28.0231V4.53013L39.5755 16.0826ZM39.686 50.5804H5.311V4.41964H23.8489V17.6786C23.8489 18.3623 24.1206 19.0181 24.6041 19.5016C25.0876 19.9851 25.7433 20.2567 26.4271 20.2567H39.686V50.5804ZM22.0074 34.0067H10.7128C10.4427 34.0067 10.2217 34.2277 10.2217 34.4978V37.4442C10.2217 37.7143 10.4427 37.9353 10.7128 37.9353H22.0074C22.2775 37.9353 22.4985 37.7143 22.4985 37.4442V34.4978C22.4985 34.2277 22.2775 34.0067 22.0074 34.0067ZM10.2217 26.1496V29.096C10.2217 29.3661 10.4427 29.5871 10.7128 29.5871H34.2842C34.5543 29.5871 34.7753 29.3661 34.7753 29.096V26.1496C34.7753 25.8795 34.5543 25.6585 34.2842 25.6585H10.7128C10.4427 25.6585 10.2217 25.8795 10.2217 26.1496Z" fill="#C49CF0"/>
</svg>
