<svg width="24" height="24" viewBox="0 0 24 24" fill="none" xmlns="http://www.w3.org/2000/svg">
<g clip-path="url(#clip0_287_3162)">
<path d="M3.35459 14.0348C3.11399 14.0266 2.87399 14.0056 2.63562 13.9719C2.28818 13.9041 1.96461 13.7462 1.69724 13.5141C1.42987 13.282 1.22805 12.9838 1.11193 12.6493C0.995822 12.3147 0.969482 11.9556 1.03554 11.6077C1.10161 11.2598 1.25776 10.9353 1.48841 10.6666C1.5552 10.592 1.62592 10.5212 1.69663 10.4505C4.61967 7.52641 7.54271 4.60365 10.4657 1.68221C10.6453 1.49689 10.8504 1.33809 11.0747 1.21058C11.4495 1.02944 11.8694 0.963018 12.2818 1.01965C12.6941 1.07628 13.0806 1.25345 13.3927 1.52893C13.6874 1.84335 13.9978 2.13811 14.3042 2.44074C16.9758 5.11851 19.6474 7.79629 22.319 10.4741C22.5639 10.7043 22.7521 10.9881 22.869 11.3033C22.9841 11.6051 23.0242 11.9303 22.986 12.251C22.9477 12.5718 22.8323 12.8784 22.6496 13.1447C22.4668 13.411 22.2223 13.6289 21.9368 13.7799C21.6514 13.9308 21.3336 14.0102 21.0107 14.0112H20.6414V14.2824C20.6414 16.389 20.6414 18.4956 20.6414 20.6022C20.648 21.1403 20.4704 21.6645 20.1381 22.0878C19.8057 22.511 19.3387 22.8078 18.8145 22.9289C18.6201 22.9745 18.4209 22.997 18.2212 22.9957C17.0976 22.9957 15.97 22.9957 14.8464 22.9957C14.7473 23.0071 14.6469 22.9959 14.5528 22.9629C14.4587 22.93 14.3733 22.8761 14.3029 22.8054C14.2326 22.7346 14.1792 22.6489 14.1468 22.5546C14.1143 22.4602 14.1037 22.3598 14.1156 22.2607C14.1156 20.6061 14.1156 18.9515 14.1156 17.2969C14.1343 17.1332 14.1159 16.9674 14.0618 16.8118C14.0077 16.6562 13.9192 16.5148 13.8029 16.3982C13.6867 16.2815 13.5456 16.1925 13.3903 16.1379C13.2349 16.0832 13.0692 16.0643 12.9055 16.0825C12.3123 16.0825 11.7269 16.0825 11.1258 16.0825C10.9599 16.0677 10.7928 16.0893 10.636 16.1457C10.4793 16.202 10.3367 16.2919 10.2182 16.4089C10.0997 16.526 10.0081 16.6675 9.94975 16.8235C9.8914 16.9796 9.86772 17.1465 9.88035 17.3126C9.90393 18.9397 9.88035 20.5668 9.88035 22.1939C9.88035 22.7638 9.64463 22.9799 9.06709 22.9799H5.83368C5.50558 22.9972 5.17749 22.9457 4.87046 22.8287C4.56344 22.7117 4.28425 22.5318 4.05082 22.3005C3.81739 22.0692 3.63488 21.7916 3.51498 21.4856C3.39508 21.1796 3.34045 20.8519 3.35459 20.5236C3.35459 18.4484 3.35459 16.3694 3.35459 14.2903V14.0348ZM15.4043 21.7066H18.1191C18.2857 21.729 18.4552 21.7129 18.6146 21.6593C18.7739 21.6057 18.9188 21.5162 19.0381 21.3977C19.1574 21.2792 19.2478 21.1348 19.3023 20.9757C19.3569 20.8166 19.3741 20.6472 19.3527 20.4803C19.3527 18.2008 19.3527 15.9213 19.3527 13.6457C19.3527 12.9619 19.6513 12.671 20.2721 12.7182C20.5078 12.7379 20.7435 12.7182 20.9832 12.7182C21.1264 12.718 21.2664 12.6758 21.3861 12.597C21.5057 12.5182 21.5996 12.4061 21.6564 12.2746C21.7132 12.143 21.7303 11.9978 21.7056 11.8566C21.6809 11.7155 21.6155 11.5846 21.5175 11.4802C21.3721 11.3191 21.215 11.1736 21.0657 11.0204L12.607 2.57436C12.5418 2.48034 12.4557 2.40272 12.3555 2.34764C12.2553 2.29255 12.1436 2.2615 12.0294 2.25693C11.9151 2.25236 11.8013 2.27439 11.697 2.32129C11.5927 2.36819 11.5007 2.43868 11.4283 2.5272L2.5374 11.433C2.4233 11.5349 2.34363 11.6697 2.30938 11.8188C2.27513 11.9679 2.28801 12.124 2.34622 12.2655C2.40443 12.407 2.50511 12.5269 2.63436 12.6087C2.76361 12.6905 2.91506 12.7301 3.06779 12.7221C3.36638 12.7221 3.6689 12.7221 3.96749 12.7221C4.05748 12.7194 4.14708 12.7351 4.23078 12.7683C4.31447 12.8015 4.39049 12.8515 4.45415 12.9152C4.51782 12.9789 4.56779 13.055 4.60098 13.1387C4.63417 13.2224 4.64989 13.312 4.64717 13.4021V20.5825C4.63924 20.7232 4.65939 20.864 4.70644 20.9968C4.7535 21.1296 4.82651 21.2517 4.92123 21.356C5.01595 21.4602 5.13048 21.5446 5.25813 21.6041C5.38578 21.6636 5.52401 21.6971 5.66474 21.7026C6.62337 21.7026 7.582 21.7026 8.54063 21.7026C8.54063 21.7026 8.5642 21.7026 8.59563 21.6751V21.4393C8.59563 19.9851 8.59563 18.531 8.59563 17.0729C8.60587 16.5116 8.82281 15.9738 9.20487 15.5626C9.58694 15.1514 10.1073 14.8956 10.6661 14.8444C11.5501 14.7855 12.4419 14.8444 13.3299 14.8444C13.3934 14.8478 13.4565 14.857 13.5184 14.872C14.0567 14.9846 14.5387 15.282 14.8809 15.7126C15.2232 16.1433 15.4041 16.6801 15.3925 17.2301C15.3925 18.6332 15.3925 20.0402 15.3925 21.4432L15.4043 21.7066Z" fill="#001724" stroke="#001724" stroke-width="0.5"/>
</g>
<defs>
<clipPath id="clip0_287_3162">
<rect width="24" height="24" fill="white"/>
</clipPath>
</defs>
</svg>
