<svg width="16" height="17" viewBox="0 0 16 17" fill="none" xmlns="http://www.w3.org/2000/svg">
<path d="M5.70455 6.75335H5.45654M8.18471 6.75335H7.93669M10.6649 6.75335H10.4169M5.70455 6.75335C5.70455 6.81913 5.67842 6.88221 5.63191 6.92872C5.5854 6.97524 5.52231 7.00137 5.45654 7.00137C5.39076 7.00137 5.32767 6.97524 5.28116 6.92872C5.23465 6.88221 5.20852 6.81913 5.20852 6.75335C5.20852 6.68757 5.23465 6.62449 5.28116 6.57798C5.32767 6.53146 5.39076 6.50533 5.45654 6.50533C5.52231 6.50533 5.5854 6.53146 5.63191 6.57798C5.67842 6.62449 5.70455 6.68757 5.70455 6.75335V6.75335ZM8.18471 6.75335C8.18471 6.81913 8.15858 6.88221 8.11207 6.92872C8.06556 6.97524 8.00247 7.00137 7.93669 7.00137C7.87092 7.00137 7.80783 6.97524 7.76132 6.92872C7.71481 6.88221 7.68868 6.81913 7.68868 6.75335C7.68868 6.68757 7.71481 6.62449 7.76132 6.57798C7.80783 6.53146 7.87092 6.50533 7.93669 6.50533C8.00247 6.50533 8.06556 6.53146 8.11207 6.57798C8.15858 6.62449 8.18471 6.68757 8.18471 6.75335V6.75335ZM10.6649 6.75335C10.6649 6.81913 10.6387 6.88221 10.5922 6.92872C10.5457 6.97524 10.4826 7.00137 10.4169 7.00137C10.3511 7.00137 10.288 6.97524 10.2415 6.92872C10.195 6.88221 10.1688 6.81913 10.1688 6.75335C10.1688 6.68757 10.195 6.62449 10.2415 6.57798C10.288 6.53146 10.3511 6.50533 10.4169 6.50533C10.4826 6.50533 10.5457 6.53146 10.5922 6.57798C10.6387 6.62449 10.6649 6.68757 10.6649 6.75335V6.75335ZM1.48828 8.74409C1.48828 9.80229 2.23101 10.7242 3.27863 10.8784C3.99754 10.9842 4.72373 11.0655 5.45654 11.1224V14.1938L8.22373 11.4273C8.36074 11.2908 8.54495 11.2122 8.73828 11.2077C10.029 11.176 11.3167 11.066 12.5941 10.8784C13.6424 10.7242 14.3851 9.80295 14.3851 8.74343V4.76327C14.3851 3.70375 13.6424 2.78245 12.5948 2.62835C11.0524 2.40197 9.49557 2.28857 7.93669 2.28906C6.35468 2.28906 4.79913 2.4048 3.27863 2.62835C2.23101 2.78245 1.48828 3.70441 1.48828 4.76327V8.74343V8.74409Z" stroke="#7E868C" stroke-width="1.19048" stroke-linecap="round" stroke-linejoin="round"/>
</svg>
