<svg width="48" height="48" viewBox="0 0 48 48" fill="none" xmlns="http://www.w3.org/2000/svg">
<path d="M0.83299 30.613C1.00514 30.0497 1.10843 29.5146 1.34943 29.0584C1.60766 28.5671 1.52158 28.1811 1.17729 27.8301C0.83299 27.4792 0.783068 27.1511 0.92595 26.6914C1.02145 26.4281 1.0414 26.1426 0.983474 25.8682C0.925549 25.5939 0.792143 25.342 0.598869 25.1421C-0.151696 24.3227 -0.206784 23.9138 0.490416 23.0751C1.00686 22.4628 1.14114 21.882 0.834712 21.1451C0.809186 21.0478 0.80729 20.9457 0.829186 20.8476C0.851083 20.7495 0.896113 20.6582 0.96038 20.5818C1.78841 19.88 1.38386 19.136 1.06711 18.4026C0.750359 17.6692 0.86742 17.0305 1.48543 16.5041C1.71202 16.2841 1.95874 16.0867 2.22222 15.9146C2.61472 15.6935 2.82646 15.4005 2.76449 14.9443C2.69219 14.4179 2.98484 14.067 3.36529 13.8406C3.8473 13.5511 4.0074 13.1721 3.97297 12.6282C3.93854 12.0842 3.85591 11.4684 4.42744 11.1894C4.93187 10.9459 5.4755 10.7979 6.03186 10.7525C6.74111 10.6963 7.24723 10.5595 7.34191 9.69972C7.36429 9.49443 7.74473 9.21018 7.99091 9.17334C8.94805 9.0277 9.36809 8.66976 9.30267 7.69069C9.18045 5.86238 10.2185 4.82365 11.5991 4.006C13.1812 3.07781 14.7546 2.16717 15.9028 0.642408C16.5501 -0.219107 16.8961 -0.20507 17.5847 0.630126C18.807 2.11102 20.3391 3.12343 21.9831 4.05513C23.4119 4.86752 24.376 6.08346 24.3209 7.90124C24.2933 8.77855 24.5085 9.02595 25.4088 9.10491C25.8857 9.14526 26.0974 9.2909 26.1594 9.82079C26.2214 10.3507 26.5691 10.6648 27.1493 10.7156C27.7333 10.7569 28.3109 10.8658 28.8707 11.0402C29.1049 11.1192 29.3287 11.4561 29.4113 11.7228C29.5094 12.0369 29.3786 12.4246 29.4784 12.7422C29.5903 13.0931 29.7762 13.5072 30.0568 13.716C30.4683 14.0231 30.7144 14.3161 30.668 14.8565C30.6249 15.3461 30.89 15.6443 31.2997 15.9233C31.7702 16.256 32.1906 16.6568 32.5478 17.113C32.9902 17.6586 32.479 18.185 32.3171 18.6535C32.083 19.3343 31.9952 19.8695 32.4704 20.4801C32.6425 20.6941 32.6425 21.1486 32.5444 21.4416C32.3843 21.9557 32.3722 22.3908 32.7578 22.7874C32.8072 22.8267 32.8543 22.8689 32.899 22.9137C33.7184 23.9665 33.7597 24.1419 32.9438 25.1298C32.5013 25.6685 32.2311 26.1404 32.6408 26.8388C32.7424 27.0142 32.627 27.4371 32.4686 27.6284C32.0004 28.1986 31.966 28.7355 32.324 29.383C32.9455 30.4989 32.8078 31.0481 31.7749 31.8131C31.1483 32.2781 30.4975 32.7027 30.6215 33.6712C30.6421 33.8344 30.4184 34.1029 30.241 34.1976C29.6248 34.5573 29.4096 35.0591 29.4354 35.7768C29.4784 36.8962 29.2512 37.0927 28.1615 37.2436C27.6586 37.2919 27.1646 37.4099 26.6931 37.5946C26.5581 37.6741 26.4405 37.781 26.3475 37.9087C26.2545 38.0363 26.1882 38.182 26.1525 38.3368C26.051 38.8228 25.8203 39.0386 25.3589 39.0702C24.4121 39.1509 24.3002 39.2562 24.314 40.1896C24.3415 42.1443 23.3018 43.3795 21.7042 44.234C20.1067 45.0885 18.6503 46.0921 17.5365 47.5678C17.113 48.1328 16.378 48.145 15.9872 47.5976C14.8011 45.9588 13.1295 44.9657 11.4476 43.9849C10.0894 43.1988 9.25103 42.1601 9.30956 40.4756C9.34743 39.3825 9.11331 39.1684 8.07526 39.0509C7.60702 38.9982 7.32641 38.7456 7.30231 38.2718C7.27821 37.7981 7.0527 37.5858 6.61372 37.491C5.96128 37.3489 5.31573 37.1647 4.66501 37.0085C4.10725 36.8752 3.96436 36.4663 3.96436 35.9557C3.99186 35.6987 3.9855 35.439 3.94543 35.1837C3.88547 34.9103 3.74915 34.6605 3.55293 34.4643C3.08124 34.0766 2.66981 33.7116 2.74039 32.9992C2.75933 32.7992 2.56824 32.529 2.40814 32.3676C2.03803 32.0009 1.59733 31.7061 1.2341 31.3323C1.05334 31.1674 0.968987 30.8709 0.83299 30.613ZM28.084 24.1051C27.9497 23.2015 27.7828 22.2996 27.6864 21.3907C27.5263 19.8835 26.91 18.5693 26.1818 17.2744C24.4517 14.1863 21.8557 12.2772 18.4472 11.6842C16.3411 11.312 14.1734 11.6651 12.286 12.6878C10.8312 13.46 9.55241 14.5362 8.53317 15.8461C6.83407 17.999 6.06629 20.4871 5.7788 23.1594C5.60666 24.6981 5.88898 26.2141 6.26943 27.7213C6.67991 29.3852 7.42693 30.9432 8.46259 32.2956C10.3356 34.738 12.7801 36.2084 15.7961 36.6278C17.5864 36.8769 19.3028 36.4962 20.9605 35.7838C23.5875 34.6503 25.4364 32.6483 26.6879 30.1164C27.6121 28.253 28.0905 26.1931 28.084 24.1051Z" fill="#568145"/>
</svg>
